<svg id="Layer_1" data-name="Layer 1" xmlns="http://www.w3.org/2000/svg" viewBox="0 0 324 60"><defs><style>.cls-1{fill:#008c71}</style></defs><path class="cls-1" d="M14.31.78C23 .78 27.39 5.94 27.39 15v1.78H19v-2.36c0-4-1.61-5.57-4.44-5.57s-4.44 1.53-4.44 5.57c0 11.62 17.36 13.8 17.36 29.95 0 9-4.52 14.2-13.24 14.2S1 53.41 1 44.37V40.9h8.4v4c0 4 1.77 5.49 4.6 5.49s4.6-1.45 4.6-5.49C18.59 33.31 1.23 31.13 1.23 15 1.23 5.94 5.67.78 14.31.78zM31.83 15C31.83 6 36.59.8 45.31.8S58.79 5.94 58.79 15v29.37c0 9-4.76 14.2-13.48 14.2s-13.48-5.16-13.48-14.2zm8.88 30c0 4 1.77 5.57 4.6 5.57s4.6-1.53 4.6-5.57V14.42c0-4-1.78-5.57-4.6-5.57s-4.6 1.53-4.6 5.57zM90.27 36.86v7.51c0 9-4.52 14.2-13.24 14.2s-13.24-5.16-13.24-14.2V15C63.79 6 68.31.8 77.03.8S90.27 5.94 90.27 15v5.49h-8.39v-6c0-4-1.78-5.57-4.6-5.57s-4.61 1.53-4.61 5.57v30.44c0 4 1.78 5.49 4.61 5.49s4.6-1.45 4.6-5.49v-8.07zM95.68 1.42h8.88v56.51h-8.88zM139.75 57.93h-9l-1.53-10.25h-10.9l-1.53 10.25h-8.15l9-56.51h13zM119.49 40h8.56l-4.28-28.58zM143.87 1.42h8.88v48.44h14.61v8.07h-23.49zM183.18.78c8.64 0 13.08 5.16 13.08 14.2v1.78h-8.39v-2.34c0-4-1.62-5.57-4.44-5.57S179 10.38 179 14.42c0 11.62 17.35 13.8 17.35 29.95 0 9-4.52 14.2-13.24 14.2s-13.23-5.16-13.23-14.2V40.9h8.39v4c0 4 1.78 5.49 4.6 5.49s4.6-1.45 4.6-5.49c0-11.62-17.35-13.8-17.35-29.95-.01-9.01 4.43-14.17 13.06-14.17zM198.85 1.42h27.44v8.07H217v48.44h-8.88V9.49h-9.28zM229.44 15c0-9 4.76-14.2 13.48-14.2S256.4 5.94 256.4 15v29.37c0 9-4.76 14.2-13.48 14.2s-13.48-5.16-13.48-14.2zm8.88 30c0 4 1.78 5.57 4.6 5.57s4.6-1.53 4.6-5.57V14.42c0-4-1.77-5.57-4.6-5.57s-4.6 1.53-4.6 5.57zM280.7 57.93c-.48-1.45-.81-2.34-.81-6.94v-8.88c0-5.25-1.77-7.19-5.81-7.19H271v23h-8.88V1.42h13.4c9.21 0 13.16 4.28 13.16 13v4.44c0 5.81-1.85 9.6-5.81 11.46 4.44 1.86 5.89 6.14 5.89 12v8.72c0 2.74.08 4.76 1 6.86zM271 9.49v17.36h3.47c3.31 0 5.33-1.45 5.33-6v-5.54c0-4-1.37-5.82-4.52-5.82zM302.9 39.2 291.68 1.42H301l6.78 25.75 6.78-25.75H323L311.78 39.2v18.73h-8.88z"/></svg>